<?xml version="1.0" encoding="utf-8"?>
<!-- Svg Vector Icons : http://www.onlinewebfonts.com/icon -->
<!DOCTYPE svg PUBLIC "-//W3C//DTD SVG 1.1//EN" "http://www.w3.org/Graphics/SVG/1.1/DTD/svg11.dtd">
<svg version="1.1" xmlns="http://www.w3.org/2000/svg" xmlns:xlink="http://www.w3.org/1999/xlink" x="0px" y="0px" viewBox="0 0 256 256" enable-background="new 0 0 256 256" xml:space="preserve">
<metadata> Svg Vector Icons : http://www.onlinewebfonts.com/icon </metadata>
<g><g><path fill="#000000" d="M128,10C62.8,10,10,62.8,10,128c0,65.2,52.8,118,118,118c65.2,0,118-52.8,118-118C246,62.8,193.2,10,128,10L128,10z M128,241.2c-62.5,0-113.2-50.7-113.2-113.2S65.5,14.8,128,14.8S241.2,65.5,241.2,128S190.5,241.2,128,241.2L128,241.2z"/><path fill="#000000" d="M223.2,147.7L223.2,147.7L223.2,147.7L223.2,147.7z"/><path fill="#000000" d="M127.9,52.6L127.9,52.6c-43.1,0-78,34.9-78,78c0,43.1,34.9,78,78,78c43.1,0,78-34.9,78-78C205.9,87.6,170.9,52.6,127.9,52.6L127.9,52.6z M127.9,206.2c-41.8,0-75.6-33.9-75.6-75.6S86.1,55,127.9,55l0,0c41.8,0,75.6,33.9,75.6,75.6C203.5,172.4,169.7,206.2,127.9,206.2L127.9,206.2z"/><path fill="#000000" d="M97.9,22.5c1.8,0.7,3.7,0.7,4.1,2.7c0.3,1.6-1.5,2.4-2,3.2c-1.7,2.5-3.7,4.8-5.6,7.2c-0.9,1.1-1.5,2.6-2.8,3.2c-0.2-0.1-0.4-0.2-0.6-0.4c0-0.4-0.1-0.9-0.1-1.3c2.1-3,4.2-5.9,6.3-8.9c0.5-0.7,1.3-1.3,1.4-2.3c0.2-1.7-1.6-1.7-1.8-3.1C97,22.6,97.5,22.6,97.9,22.5L97.9,22.5L97.9,22.5z M137.2,217.4c4.5,0,4.3,3.4,4.9,7.3c0.2,1.1,1,2.9,0.4,3.9c-1.5,0.1-2,0-2.9-0.7c-1,0.4-1.3,1.3-2.3,1.6c-3.8,1.1-6.5-1.9-4.8-5.1c1.1-2,4.2-1.9,6-3.1c-0.1-1.2-1.4-3.3-2.9-2.1c-0.7,0.5-0.8,1.9-1.6,2.1c-0.9,0.3-2.1,0.1-2.4-0.3c0.6-2,1.9-3,4-3.5C136.2,217.5,136.8,217.7,137.2,217.4L137.2,217.4L137.2,217.4z M138.1,223.6c-1.8,0.9-2.4,0.3-3.2,2.4c0.2,0.5,0.4,1.2,0.9,1.4c1,0.8,2.5,0,3.1-0.5c0.1-0.9,0.6-2.8-0.3-3.3C138.4,223.6,138.2,223.6,138.1,223.6L138.1,223.6L138.1,223.6z M111.7,216.6c0.8,0.1,1.7,0.2,2.5,0.4c0.1,0.3,0.2,0.7,0.4,1c0.1,0,0.1,0,0.2,0.1c0.6-0.2,1.1-0.4,1.7-0.7c2.6-0.6,3.9,1.3,4.9,2.5c0.1,0,0.2,0,0.3,0c1.6-2,5.1-1.7,6.4,0.3c0.2,0.6,0.4,1.2,0.7,1.8c0.1,0.5-0.6,8.7-0.8,9.2c0,0,0,0-0.1,0c-0.7-0.2-2.1-0.5-2.7-0.9c0,0,0,0,0-0.1c0.3-3.3,1.9-9.7-1.8-10c-2.9,1.4-2,3.5-2.6,7.1c-0.1,0.9,0.1,1.8-0.2,2.4c-0.8,0-1.7-0.1-2.5-0.1c-0.3-0.7-0.2-2-0.1-2.7c0-0.7,0-1.5,0-2.3c0.6-2.5,0.5-3.9-1.2-5.4c-4.1-0.2-3.1,5.9-3.5,9.5c-0.1,0-0.2,0.1-0.4,0.1c-0.6-0.2-1.7-0.3-2.4-0.7c-0.4-1.9,0.1-4.6,0.5-5.9c0.5-1.8-0.4-4.1,0.5-5.4H111.7L111.7,216.6z M103.7,213.6c1,0,2,0.6,2.4,1.1c-0.1,0.6-0.4,0.5-0.4,1.2c0.5,0.8,2.3-0.9,3.9,0.1c0.1,0.9-0.1,1.9-0.8,2.3c-0.8,0.2-2-0.6-2.9,0c-1.7,1.1-1.8,5.4-3,7.3c-0.6,0-2-0.7-2.6-1C101.4,220.8,102.5,217.2,103.7,213.6L103.7,213.6L103.7,213.6z M147.7,212c1.1,0.3,0.8,2.7,1.1,3.7c0.7,2.5,0.9,5.1,1.5,7.7c0.2,1,1.1,3,0.8,4.1c-0.1,0.2,0,0.2-0.2,0.3c-0.4,0.2-1.6,0.5-2,0.4c-1.1-0.6-0.8-2.7-1.2-4.1c-0.4-1.6-0.8-3.9-1.3-5.4c-0.1-1-0.2-2-0.4-3c-0.3-1-0.9-2.2-0.2-3.3C146.4,212.2,147,212.1,147.7,212L147.7,212L147.7,212z M92.1,210.3c8.6-0.2,7.6,10.5,1.5,12c-4.4,1.1-7.7-3.5-6.6-7.3C87.8,212.6,89.9,211.2,92.1,210.3L92.1,210.3L92.1,210.3z M93,211.9c-1.9,1.4-6.2,4.5-3.7,7.6c0.4,0.6,1.1,1.2,1.9,1.4c2.7,0.7,8-6.1,3.6-8.5C94.3,212.1,93.9,211.8,93,211.9L93,211.9L93,211.9z M171.1,203.1c0.1,0,0.3,0,0.4,0.1c0.7,0.4,1.7,3.9,2.1,4.9c1.2,2.9,4.6,8,0.8,11c-0.7,0.5-1.3,1.4-2.1,1.7c-7.1,2.6-7.8-3.2-9.9-7.7c-0.6-1.3-2-3.2-1.8-4.8c0.7-0.3,1.4-0.7,2.1-1c0.1,0.1,0.1,0.1,0.2,0.2c0.3,1.3,1.2,2.6,1.7,3.7c1.1,2.6,2,7,4.6,8.1c1.1,0.5,2.4-0.3,3.1-0.7c1.7-1.1,1.4-3.3,0.8-5.3c-0.8-2.4-2.3-4.7-3.2-7.3c-0.2-0.6-0.7-1-0.8-1.7c0,0,0-0.1,0.1-0.1C169.9,203.8,170.4,203.5,171.1,203.1L171.1,203.1L171.1,203.1z M182.5,201.7c3.3,0,5.7,5.6,6.9,8.1c-0.4,0.6-1.4,1.3-2.3,1.4c-1.3-1.3-3.9-8.6-6.8-6.7c-3.3,2.2,3.1,7,2.4,9.2c-0.2,0.5-1.5,1.2-2.1,1.3c-1.2-1.8-2.5-3.8-3.3-5.7c-0.6-1.1-0.9-2.2-1.8-3.1c0-0.5,0.1-0.6,0.3-0.9c0.5-0.3,1-0.5,1.4-0.8c0.5-0.1,0.7,0.3,1.2,0.1c0.9-0.4,1-1.5,1.8-2C180.9,202.3,181.7,202,182.5,201.7L182.5,201.7L182.5,201.7z M188.1,196.7c1,0.2,1.3,1.2,1.8,1.8c0.9,1.3,5,5,5.1,6.4c-0.7,0.5-1.1,1.4-2.3,1.4c-1.3-1.8-3-3.4-4.4-5.3c-0.6-0.8-2.1-1.7-2.3-2.8C186.8,197.7,187.4,197.2,188.1,196.7L188.1,196.7z M79.1,196.7c1.1,0.1,3.5,2,4.2,2.7c-0.2,1.3-0.4,2.6-0.6,3.9c-0.5,2.3-0.4,4.5-0.7,6.5c-0.2,1.1-0.5,3,0.2,3.5c0.2,0,0.3,0,0.5,0c1.7-3.8,4.5-6.8,6.1-10.5c1,0,2,0.8,2.5,1.4c-0.3,1.2-1.5,2.3-2,3.3c-1.6,2.7-3.1,5.4-4.8,8c-0.6,0.9-0.9,2.6-2.1,2.7c-1.2-0.7-2.6-1.5-3.5-2.5c0-1.5,0.5-3.1,0.6-4.2c0.4-2,0.4-4.6,0.8-6.5c0.3-1.3,0.7-4.6-0.8-3.9c-0.2,1.1-1,2-1.5,2.8c-1.2,1.9-2.4,3.9-3.4,5.8c-0.4,0.8-1,2.4-2,2.6c-0.6-0.4-1.2-0.9-1.8-1.3c0-1.5,2.4-4,3.1-5.3C75.8,202.7,77.5,199.8,79.1,196.7L79.1,196.7L79.1,196.7L79.1,196.7z M185.4,192.9c0.5,0.2,1,0.9,1.3,1.3c0,0.1,0,0.3,0,0.4c-0.3,0.5-1.6,1.9-2.3,1.7c-0.5-0.2-0.9-0.8-1.3-1.3c0-0.1,0-0.3,0.1-0.4C183.6,193.8,184.7,193.4,185.4,192.9L185.4,192.9L185.4,192.9z M197.7,187.1c1,0.2,0.8,1.2,1.3,1.9c1.2,2,2.2,4.2,3.1,6.5c0.2,0.6,1,0.9,0.8,1.8c-0.2,0.7-1.6,1.8-2.1,2.2c-1.9-0.5-3.3-1.6-4.9-2.3c-1.7-0.8-4-1.1-5.2-2.3c0-0.2,0-0.4,0.1-0.7c0.7-0.4,1.1-1.3,2-1.5c1,0.5,5.5,3.4,6.4,3.1c0.1,0,0.1-0.1,0.2-0.1c0-2.4-2.8-4.4-3-6.9c0.5-0.5,0.9-1,1.4-1.5H197.7L197.7,187.1z M59.6,186.1c0.8,0.2,1.2,1.3,1.7,1.8c-0.1,0.5-0.4,0.6-0.3,1.2c1.7,0.6,5,2.7,3.8,5.4c-0.7,1.5-2.5,2.6-3.7,3.5c-1,0.7-1.9,2-3.1,2.5c-0.6-0.3-1.7-1.3-1.8-2.1c1.5-1.5,4.9-3.4,5.8-5.2c0.8-1.6-0.6-3-2-3.1c-2.6,1-4.6,3.1-6.6,4.8c-0.7-0.2-1.6-1.4-2-2C54.1,190.5,56.9,188.3,59.6,186.1L59.6,186.1z M204.9,179.2c2.5,0,3.8,0.8,5.1,2c0,0.1,0,0.2,0,0.4c-0.7,0.5-4.5,4.7-4.3,5.4c0.2,0.6,1.3,1.2,2.1,1.3c1.4-0.8,2-1.6,1.8-3.6c0.6-0.6,1-1.3,1.8-1.8c0.1,0,0.2,0.1,0.3,0.1c0.1,1.1,0.5,1.8,0.2,3c-0.5,1.9-3.7,5.3-6.4,4.2c-4.4-1.8-7.2-7.8-1.8-10.7C204.1,179.4,204.6,179.3,204.9,179.2L204.9,179.2L204.9,179.2L204.9,179.2z M204.7,181.5c-1.3,0.5-3.3,2.7-1.1,3.7c0.5,0.1,0.7,0,1-0.2C205,184,208.2,181.5,204.7,181.5L204.7,181.5L204.7,181.5z M50.3,176.5c2.6,0,6.2,4.1,4.6,7c-0.5,1-6.6,4.8-7.8,4.9c-0.1,0-0.2-0.1-0.4-0.1c-0.5-1.1-0.6-1.5-0.4-2.8c-0.4-0.2-1.1-0.4-1.4-0.7c-1.7-1.2-2.5-5-0.1-6c2.1-1,4.3,0.5,5.2,1.6c0.4,0.7,0.9,1.4,1.3,2.1c1,0.7,2-1.1,2.2-1.9c-0.2-0.4-0.5-0.8-0.7-1.2c-0.7-0.1-1.3-0.2-2-0.4c-0.3-0.7-0.9-1.2-1-2C49.9,176.6,50,176.5,50.3,176.5L50.3,176.5L50.3,176.5z M46.9,180.8c-0.5,0.4-1,0.8-1.3,1.4c-0.9,2.7,4.8,2.8,4.2,0.8C49.6,181.8,48.4,180.7,46.9,180.8L46.9,180.8L46.9,180.8z M208.8,168.7c0.7,0.1,1.7,0.6,2,1.2c0,0.2,0,0.4,0.1,0.6c-3.3,2.5,3.9,6.4,5.7,6.8c0.1,1.2-0.6,1.8-0.9,2.7c-1.6,0-5.8-3.2-7.3-4c-0.8-0.5-2.1-0.7-2.6-1.4c0.1-0.8,0.7-1.6,1.3-2.2c0.8,0,1,0.5,1.6,0.2c0-0.1,0-0.1,0.1-0.2C208.3,170.9,207.8,170,208.8,168.7L208.8,168.7L208.8,168.7z M45.7,162.5c1.3,0.1,1.4,1.3,1.4,2.6c-0.3,0.4-0.6,0.5-0.7,1c0.3,0.3,1.1,0.4,1.3,0.7c1,1.3,1.2,4.7-0.2,5.8c-1.2,0.8-2.6,0.6-4.1,1.3c-0.8,0.4-3.5,1.6-4.4,1.2c-0.1-0.5-1.2-2.3-0.6-2.7c0.5-0.1,1-0.1,1.5-0.2c1.9-0.7,7.6-1.6,6.4-4.6c-1.2-2.8-7,0.3-9.3,0.6c0-0.1-0.1-0.1-0.1-0.2c-0.5-0.5-0.5-2-0.1-2.5c2-0.7,4.3-1.4,6.3-2C44.1,162.9,44.8,163,45.7,162.5L45.7,162.5L45.7,162.5z M214.9,159c0.7,0,1.3,0,1.7,0.3c0,0.1,0,0.2,0,0.3c-0.5,0.6-0.6,1.3-1,2c-0.7,0.9-2.6,0.3-2,2.8c3,2.1,4.6-5.5,8.2-3.1c3.3,2.2,0.2,10.2-3.8,9.5c-0.3-0.7,0.3-2,0.7-2.6c1.6-0.3,3.2-1.9,2-3.6c-0.3-0.1-0.7-0.3-1-0.2c-2.1,0.3-3,5.1-6.1,4.1c-2.3-0.7-2.8-4.2-1.6-6.6C212.7,160.5,213.7,159.7,214.9,159L214.9,159L214.9,159z M215.5,153.1c2.6,0.2,5.2,1.3,7.5,1.9c1.3,0.4,2.7,0.1,3.3,1.2c0,0.5-0.1,2.2-0.5,2.5c-0.6,0.4-1.9-0.2-2.6-0.4c-2.1-0.6-4.5-1.2-6.4-1.8c-0.7-0.2-1.4-0.1-1.9-0.4c0,0,0-0.1-0.1-0.1C215.2,155.1,215.1,153.8,215.5,153.1L215.5,153.1L215.5,153.1z M210.7,151.7c0.9,0,1.6,0.4,2.2,0.7c0.1,0.7-0.2,2.5-0.6,3.1c0,0,0,0-0.1,0c-0.7,0-1.7-0.3-2-0.8C209.8,154.2,210.3,152.2,210.7,151.7L210.7,151.7L210.7,151.7z M40.4,149.9c0.7,0,0.7,0.1,1,0.4c0.2,0.7,0.6,1.4,0.3,2.2c-1,0-1.6,0.4-2.5,0.6c-2.6,0.6-4.8,0.2-6,2.1c-0.2,5.7,6.9,1.1,9.5,1.8c0,0.9,0.5,1.7,0.4,2.6c-1.5,0.4-9.2,2.3-10.4,1.8c-0.2-1.2-0.5-1.8,0.2-2.7c0-1.3-0.8-1.2-1.2-2c-0.2-0.5-0.4-1.5-0.5-1.9c-0.1-0.5,0.2-0.8,0.3-1.1c0.2-0.7,0-1.3,0.4-1.7c1.1-1.2,4.4-1.4,6.2-1.8C38.9,150.1,39.6,150,40.4,149.9L40.4,149.9z M43,133.8c0.2,0,0.4,0,0.7,0.1c0.3,0.6,0.4,2,0.3,2.7c-1.8,0.7-7.5-0.6-6.4,2.6c0.2,0.6,0.4,1.5,0.6,2.2c0.2,1-0.3,1.9,0.4,2.3c1.8,0.6,4.3-0.6,6.3-0.3c0.3,0.6,0.7,1.9,0.3,2.7c0,0.1-0.1,0.1-0.1,0.2c-4.4,0-7.6,1.1-11.9,1.2c-1.3,0-3.3,0.9-4.3,0.4c-0.1-0.8-0.3-2.1,0-2.6c2.2-0.6,4.3-0.5,6.7-0.9c0.1-0.2,0.3-0.4,0.4-0.6c0.2-0.8-0.6-5.5-1-6c0,0-0.1,0-0.1,0c-2.3-0.6-5,1.4-6.9,0.5c0-0.5,0-1.1-0.1-1.6c-0.2-0.4-0.5-0.2-0.6-0.8c0.8-0.7,2.5-0.2,3.6-0.5c2.8-0.7,6.7-0.8,9.3-1.3C40.9,133.9,42,133.9,43,133.8L43,133.8L43,133.8z M219.8,131.7c1.8,0.3,3.6,2.1,5,2.9c1.3,0.7,2.6,1.1,3.9,1.9c1.7,1.2,3.5,2.4,5.6,3.3c0,1.2,0,2.1-0.4,2.8c-1.8,0-2.3-1.4-3.6-1.8c-0.8-0.2-2.1,0.4-2.8,0.6c-2.3,0.7-7.5,0.7-8.7,2.2c0.4,1,0.3,1.6,0.5,2.8c0.6,0.7,6.2,1.5,7.4,1.1c0.2-0.5,0.4-1.3,0.7-2c0.7,0,0.9,0.1,1.3,0.4c0.2,1.1,0,2.6-0.4,3.5c-1.7,3.4-6,0.1-9,0.6c-0.7,0.6-0.6,1.6-1,2c-0.4,0.1-0.8,0-1.1-0.1c-0.5-0.7,0-1.7-0.6-2.3c-0.4-0.5-1.5-0.4-2-0.7c-0.3-0.8-0.6-2.2-0.4-2.9c1.1,0,2.7,0.6,3.2-0.2c0.1-0.5,0.1-1.1,0.2-1.6c0.3-0.3,0.7-0.7,0.9-1c0.3-1-0.2-2.4,0.3-3.2c2.2-0.3,5.8-0.2,7.6-1.3c0-0.1,0-0.2,0.1-0.3c0-0.1,0-0.2-0.1-0.3c-1.1-1-6.5-2.6-7-3.8C219.5,133.3,219.7,132.5,219.8,131.7C219.8,131.7,219.8,131.7,219.8,131.7L219.8,131.7L219.8,131.7z M223.5,79.5c2.6,0.6,0,5.9,2.8,6.8c0.6,0.2,1.3,0.3,1.9,0c0.4-0.5,0.9-1,1.3-1.5c0.1,0,0.2,0,0.3,0c1.3,1.6,1.3,3.3-0.2,4.6c-1.2-0.1-2.1-1-3.4-1.2c-0.1,0.1-0.1,0.1-0.2,0.2c0,0,0,0,0,0.1c0.6,0.6,1.5,0.8,2.3,1.2c1.9,0.9,4.8,2.3,5.3,4.6c-1.5,1.5-5.8,0.7-8.8,1.2c0,0.1,0,0.2,0,0.3c0.6,0.4,1.5,1.1,1.8,1.8c0,0.2,0,0.5,0,0.7c-3,2.2-5.6-1.2-8.4-1.3c-0.6,0.4-1.1,0.8-1.9,0.9c-0.2-0.4-0.5-0.6-1.2-0.6c-0.2,0.2-0.4,0.3-0.7,0.5c0,0.1,0,0.2,0,0.3c0.6,0.8,1.2,1.6,1.8,2.5c0.3,0.1,0.7,0.1,1,0.2c0.5,0.2,1.2,1.3,1.3,2c-0.6,0.7-1.2,1.4-1.8,2.1c-0.1,0-0.1,0-0.2-0.1c-1-0.3-2.7-4.5-4.3-5.4c-1.3,0.8-2.6,1.5-3.7,2.5c-0.6,0.6-1.1,1.1-1.7,1.7c-0.4,0.3-1.3,0.6-2,0.4c-0.8-0.3-2.3-4.5-1.3-5.6c1.1,0.4,1.2,1.7,2,2.2c0.6,0.2,3.8-2.3,4.5-2.8c0-0.2,0-0.4,0-0.6c-1.1-1.6-3.6-3.1-5.7-3.7c-0.7,0.2-0.8,0.8-1.4,0.9c-0.5-1.7-2.5-3-0.3-4.5c3.2,0.1,7.6,4.5,9.8,6.1c0.7,0,1.5-0.4,1.8-0.9c-0.2-0.3-0.5-0.6-0.7-0.9c0-0.1,0-0.1,0.1-0.2c0.2-0.4,0.5-0.5,0.9-0.7c1.3,0,2,1,2.9,1.4c1.5,0.9,5.3,2.8,7.4,2.6c0-0.1,0-0.2,0.1-0.3c-0.5-0.4-0.9-0.7-1.4-1.1c-0.5-0.1-1-0.1-1.5-0.2c-0.7-0.3-1-1.2-1.7-1.5c-3.3-1.4-6.7-2.9-10-4.4c-2-0.9-5.4-0.6-4.6-3.6c0.4-0.3,0.9-0.5,1.3-0.8c2.2,0.6,4.4,1.2,6.5,1.8c1,0.3,2,0,2.9,0.4c0.6,0.2,0.8,0.7,1.5,0.9c0.8-0.7,1.5-0.3,2.6-0.1c0-0.1,0.1-0.1,0.1-0.2c-0.1-0.3-0.3-0.6-0.6-0.8c-1.1-0.8-2.8-0.1-4-0.4c-1.3-1.8-1.2-2.7,0.7-3.7c0.5-0.6,0.9-1.2,1.4-1.8c0.3,0,0.3,0.1,0.5,0.2c0.7,1.8,0.6,2.3-0.5,3.5c0.1,0.2,0.2,0.4,0.4,0.7c0.4,0,0.8,0,1.3-0.1c0-0.4,0.2-0.5,0.4-0.7c0.3,0,0.5,0.1,0.8,0.1c0.7-0.8,1.7-1.5,2.2-2.6c0.4-1-0.2-2.1,0.1-3c0,0,0.1,0,0.1-0.1L223.5,79.5L223.5,79.5z M223.6,92.8c-0.2,0.1-0.4,0.1-0.7,0.1c0,0.1,0,0.2,0.1,0.3c0.2,0.3,1.6,0.5,1.8,0.3c0-0.1,0.1-0.3,0.1-0.4C224.6,93,224.1,92.9,223.6,92.8L223.6,92.8L223.6,92.8z M218.5,91.2c-0.1,0-0.2,0-0.3,0.1c0,0.1,0,0.3,0,0.4c0,0,0,0.1,0.1,0.1c0.5,0.1,0.4,0.2,0.8,0.4c0.1-0.1,0.1-0.1,0.2-0.2c0-0.2,0-0.5-0.1-0.7C219,91.2,218.8,91.2,218.5,91.2L218.5,91.2L218.5,91.2z M223.4,91.6c0.2,0,0.4,0,0.7-0.1c0-0.5,0-0.3,0.3-0.4c0-0.2,0-0.4,0-0.6c-0.4-0.2-0.4-0.4-0.9-0.3C223.4,90.9,223.4,91,223.4,91.6L223.4,91.6L223.4,91.6z M227.2,90c-0.3,1.7,0.7,2.6-1.5,3.1c0,0.1,0,0.2,0,0.3c0,0,0,0,0.1,0.1c1.4,0,5.4,0.3,5.9-0.3c-0.7-1.5-3.5-1.6-4-3.1C227.6,90.1,227.4,90.1,227.2,90z M219.8,89.4c-0.1,0-0.2,0.1-0.3,0.1c0,0.1,0,0.2,0,0.4c0.7,0.2,0.7,0.5,0.9,1.3c0.2,0,0.3,0.1,0.5,0.1c0.2-0.1,0.2-0.1,0.4-0.3C221.3,90.2,220.8,89.6,219.8,89.4L219.8,89.4L219.8,89.4z M215.8,89.4c-0.1,0.1-0.2,0.3-0.3,0.4c0.2,0.4,0.5,0.8,0.7,1.3c0.2-0.1,0.5-0.2,0.7-0.3c0.3,0.4,0.8,0.5,0.8-0.3c-0.2-0.3-0.4-0.7-0.7-0.9c-0.2,0.1-0.3,0.2-0.5,0.4C216.4,89.7,216.3,89.5,215.8,89.4L215.8,89.4z M214.7,89.2c-0.1,0.2-0.2,0.4-0.4,0.6c0.2,0.2,0.1,0.2,0.4,0.3c0.2-0.1,0.3-0.2,0.5-0.4c0-0.1,0-0.1,0-0.2C215.1,89.4,214.9,89.3,214.7,89.2L214.7,89.2L214.7,89.2L214.7,89.2z M213.8,89c-0.2,0.1-0.4,0.1-0.6,0.2c0,0.5,0.1,0.6,0.6,0.6c0.1-0.1,0.2-0.2,0.4-0.4c-0.1-0.2-0.1-0.3-0.2-0.5C213.9,89,213.9,89,213.8,89L213.8,89z M222.9,88.7c0-0.3-0.1-0.5-0.1-0.8c-0.3-0.1-0.5-0.1-0.7,0.1c0,0.2,0.1,0.4,0.1,0.6C222.5,88.7,222.7,88.7,222.9,88.7L222.9,88.7L222.9,88.7z M36.4,77.3c2,0,1.8,1.4,2.6,2.6c0.6,0.5,1.1,0.9,1.6,1.4c3.4,2.4,7.5,4,11.6,5.5c1.1,0.4,5.5,1.3,5.7,2.2c1.3,3.9-4.7,3.1-5.8,4.6c0,0.1,0,0.1-0.1,0.2c1.4,0.7,3.3,1.3,2.9,3.2c-2.4,0.7-3.4-0.9-4.9-1.7c-0.8-0.3-1.6-0.5-2.5-0.8c-0.6-0.4-1.2-1.2-1.9-1.4c0,0,0,0-0.1,0.1c0.2,2,3.9,5.8,1.5,7c-1.5,0.7-2.6-1.8-3.1-2.6c-0.1,0-0.2,0-0.3,0c0,0-0.1,0.1-0.1,0.1c0,1.1,0.6,2.8,1.3,3.2c0.8-0.4,1.5,0,2.1,0.4c0.1,0.5,0.1,0.7,0,1.2c-0.9,1.3-3.4,1.4-4.3-0.1c-0.5-0.8,0.1-2.1-0.4-3.1c-1-0.5-2-0.9-2.9-1.4c0,0.1-0.1,0.1-0.1,0.2c-1.2,4.4,3.2,6.1,5.9,7.1c1.6,0.6,4.6-0.5,3.9,2.7c-0.9,1.2-6.8-0.1-8.1-0.7c-1.6-0.6-2.9-1.5-4.4-2.3c-0.7-0.1-1.3-0.2-2-0.4c-0.9-0.5-1.9-0.9-2.8-1.4c-1.9-1.2-3.2-3.6-5.4-4.4c-0.5,0-1,0-1.4,0c-1.2-0.4-2.3-0.8-3.5-1.2c0-3.3,6.7-5.7,5.3-0.9c2.9,2.2,4.4,6.3,9.6,4.4c0.8,0.5,1.1,1.8,1.8,2.4c1.7,1.3,3.5,2,5.8,2.8c0.7,0.2,2.1,1,3,0.7c0.1,0,0.1-0.1,0.2-0.1c0-0.1,0-0.2-0.1-0.4c-3.4-1.2-7.4-2.1-9.1-4.9c-0.8-1.3-0.5-3.9-1.4-5.2c-2-0.7-6.8-7.9-6.2-10.5c0.1,0,0.3,0,0.4-0.1c0.9,0.8,1.1,1.8,1.6,3c0.7,1.4,2,3.5,3.4,4.3c0.1,0,0.2,0,0.3-0.1c0-2.4-1.7-4.2-1.4-6.5c0,0,0.1,0,0.1-0.1c0.2,0.1,0.5,0.2,0.7,0.3c0.5,1.1,0.9,2.2,1.4,3.3c0.3,1.5,0.5,3,0.8,4.5c0.4,0.7,3,2.4,3.9,2.6c0,0,0.1,0,0.1-0.1c-0.1-2.7,0.5-2.1,1.6-3.6c-0.6-1.3-3.2-4.6-4.3-5.4c-0.8-0.6-2.8-0.8-3.2-1.4c-0.8-1.3-1.9-7.5-0.7-8.8c0.4-0.1,0.7-0.3,1.1-0.4L36.4,77.3L36.4,77.3z M46.8,87.7c0,0.7-0.1,1.4-0.1,2.2c-0.1,0.4-0.5,0.5-0.6,1.1c4.2,1,4.5,3.9,8.4-0.3c0-0.1,0-0.2-0.1-0.3c-1.8-0.6-3.6-1.2-5.4-1.8C48.3,88.4,47.7,87.8,46.8,87.7L46.8,87.7L46.8,87.7z M38,81.8c-0.8,1.9,0.3,4.3,1.6,4.9c0.5-0.4,1-0.8,1.4-1.2c1.6-0.8,2.5,1.7,3.6,2c0,0,0,0,0.1-0.1c0-0.3,0-0.5-0.1-0.6C42.3,85.1,40.2,83.4,38,81.8L38,81.8z M191,66.2c1.1,0.5,1.4,4,2,5.3c0.5,1.1,1.6,3.7,2.7,4.2c0.3,0,0.6,0,0.9,0.1c0.4,0.3,0.8,0.5,1.3,0.8c0,0.2,0,0.4,0,0.7c-0.2,0.2-0.4,0.4-0.6,0.7c-1.4-0.1-3.6,0-4.6-0.5c-3.2-1.7-2-6.9-2-10.8C190.8,66.4,190.9,66.3,191,66.2L191,66.2z M201.2,49.1c0.1,0,0.1,0,0.2,0c0.2,0.1,0.3,0.3,0.5,0.4c0,2,0.8,3.8-0.1,5.6c-0.5,0.8-1.4,1.1-2.2,1.6c-2,1.4-3.9,2.8-5.9,4.1c0,0.1,0,0.2,0,0.3c1.8,0.8,3.6,1.5,5.4,2.3c0,0,0,0,0.1-0.1c0-0.8-0.2-1.1-0.4-1.8c0.1-0.1,0.1-0.1,0.2-0.2c0.3,0.1,0.7,0.3,0.9,0.4c0.4,0.8,0.7,1.6,1.1,2.5c-0.1,0.6-0.4,1.2-0.7,1.5c-2.3-0.9-4.6-1.8-6.9-2.7c-0.6-0.2-1.1-0.6-1.9-0.7c-3.4,2.3-7.1,5.5-12.3,2.6c-1-0.6-2.1-1.1-2.2-2.6c0.1-0.1,0.2-0.2,0.4-0.4c0.2,0,0.4,0,0.7,0c0.2,0.2,0.7,1.1,0.9,1.3c2.5,1.4,7.2,0.4,8.7-1.3c-1.3-1.5-7.1-1-6.4-4.6c0.1-0.1,0.1-0.2,0.2-0.3c1.3,0,1.7,0.8,2.6,1.3c2.1,0.8,4.2,1.5,6.3,2.3c2.7-2,5.6-3.9,7.8-6.5c0.6-0.8,1.2-1.6,1.8-2.5C200.5,50.6,200.2,49.8,201.2,49.1L201.2,49.1L201.2,49.1z M57.4,45.6c3.9,0.2,3.7,1.2,5.1,3.8c0.1,0,0.1,0,0.2,0c1-1.8,1.9-2.9,4.3-1.8c0,0.1,0,0.2,0,0.3c-1,1-3.1,5.3-3.6,6.8c-0.4,1.2,0,3.6,0.1,4.5c0,0,0,0,0.1,0c0.1,0,0.2,0,0.3-0.1c0.5-1,1-2,1.4-3.1c0.9-2.4,1.8-4.8,2.8-7c0.6-1.3,0.9-2.6,2.8-2.6c1.5,0.7,1.5,2.6,2.3,4.1c1.6,2.9,3.4,5.6,5.1,8.4c0.8,1.3,2.1,2,2.1,4.1c-0.7,0.5-2.3,1.6-3.8,1.2c-1.1-0.3-2.8-0.8-4.2-0.3c-0.2,0.2-0.4,0.3-0.6,0.5c0.4,1.7,3.1,2.6,0.5,5.2c-0.6,0-1-0.2-1.4-0.4c0-0.4-0.2-0.8-0.4-1.1c0,0,0,0-0.1,0c-0.2,0.4-0.4,0.7-0.6,1.1c-0.1,0-0.2,0-0.4,0c-1.1-0.6-1.2-1.7-0.9-3.1c0,0-0.1-0.1-0.1-0.1c-0.6,0.1-1.4,0-1.6-0.7c0.2-0.8,0.5-1.6,0.7-2.4c0.1-0.5,0-2.7-0.2-3.6c0,0,0,0-0.1,0c-0.1,0.1-0.3,0.2-0.4,0.4c0,0.7,0,3.3-0.3,3.8c-0.9,1.3-2.5,0.8-3.9,1.5c-0.4,0.2-2.7,3.7-2.8,4.3c1.4,1.8,5.1,1.8,5.1,5.1c-0.5,0.3-0.9,0.9-1.4,1.1c-1.4,0.5-3-1.7-3.2-2.6c0-0.3,0.2-0.5,0-0.9c-0.6-0.8-1.3-1.5-2-2.3c1.3-3.7,4.2-5.6,3.3-10.9c0,0-0.1,0-0.1-0.1c-0.5,0.4-1,0.7-1.5,1.1c-0.6,0.4-1.2,0.3-2,0.7c-0.6,0.4-1.2,0.8-1.8,1.2c-0.1,0-0.1,0-0.2-0.1c-0.1-0.2-0.3-0.4-0.4-0.6c-0.3-1.2,0.7-1.7,1.4-2.1c1.2-0.8,2.3-3.4,3.2-4.6c-0.9-1.6-1.3-3.5-2.5-4.8c-0.7-0.8-2.4-1.5-2.7-2.6C55.9,46.1,56.5,46,57.4,45.6L57.4,45.6L57.4,45.6L57.4,45.6z M65.9,58.7c-0.7,1.1-1.4,2.7-1.8,4c0,0,0,0,0.1,0.1c1.2,0,2.1-3.5,2-4.1C66,58.7,65.9,58.7,65.9,58.7z M70.4,49.5c-0.6,0.6-3.3,5.6-3,6.3c0,0,0,0,0.1,0c0.7-0.3,1-0.7,1.9-0.8c0.3,0.2,0.5,0.5,0.8,0.7c0.1,1.2-1.5,4.1-0.6,5c0.6-0.1,0.9-0.2,1.4-0.1c0.1,0.2,0.2,0.3,0.4,0.5c-0.1,0.4-0.3,0.9-0.4,1.3c0.1,0,0.2,0,0.4,0c0.3-0.2,0.5-0.5,1.1-0.5c1,1.5,4.5,0.1,5.4-0.5c0-0.2,0-0.4,0-0.6c-1.2-1-2-2.8-2.8-4.2c-0.7-1.2-1.8-2.4-2.5-3.6C72.1,52.1,71.5,49.9,70.4,49.5L70.4,49.5L70.4,49.5L70.4,49.5z M94.3,41.3c0.2,0,0.4,0,0.6,0c1.2,1.3,2.1,2.1,2.7,4.1c0.6,2-0.7,4-2.4,3.4c-0.3-1-1.5-1.3-1.7-2.5c-0.1-1.2,0.8-2.2,0.9-3.3C94.5,42.5,94.2,42.1,94.3,41.3L94.3,41.3L94.3,41.3z M100.2,32c0.6,0,0.9,0,1.3,0.2c0.8,2-0.1,2.2-0.7,3.6c0.1,0.8,1,1.1,1.4,1.6c0,0.1,0,0.3-0.1,0.4c-0.2,0.2-0.5,0.2-0.6,0.4c0,0.1,0,0.1-0.1,0.2c1.6,1.1,0.6,1.5,0.2,2.6c0.2,0.3,0.3,0.7,0.5,0.9c0.3,1.7-1.3,3.3-2.6,3.3c-0.3-0.1-0.4-0.2-0.6-0.4c-0.6-1,0.3-2.2,0.1-3.1c0-0.1-0.1-0.2-0.1-0.3c-0.6,0-0.8,0-1.1-0.2c0-0.1,0-0.2,0-0.4c0.5-0.6,1.2-1,1.7-1.6c0-0.1,0-0.2,0-0.3c-0.8-0.5-0.6-0.9-0.9-1.8c0,0,0,0-0.1,0c-1.3,0.2-2.1,0.9-3.6,0.6c0-0.1,0-0.1,0-0.2c0-0.2,0-0.4,0-0.6c0.3-0.5,0.8-0.6,1.3-0.9C97.7,35,98.5,33,100.2,32L100.2,32z M165.4,31.9c0.3,0,0.5,0.1,0.8,0.1c0.2,0.2,0.3,0.4,0.5,0.7c-0.1,3.6-4,2.9-5.4,5.1c0,0.2-0.1,0.4-0.1,0.6c0.5,0.7,1.2,1.3,1.9,1.8c0,0.1,0,0.2,0,0.3c-0.4,0.3-0.7,0.7-1.1,1c-1.3,0-3-1.1-3.2-2.2c0-0.2,0.1-0.5,0.1-0.8c-0.2,0-0.3,0-0.5,0c0.1,1.5,0,3-0.4,4.8c-0.2,0.7-0.8,1.5-0.6,2.6c0.1,0.6,0.7,1.1,1.2,1.3c1.5,0.5,7.5,1.3,8.4,0.6c0.2-0.8,0.6-2.3,0.2-3.3c-0.3-0.9-1.3-1.5-1.2-2.6c2.8,0.2,5.4,7.9,2,9c-1.3,0.4-3.9-0.9-5-1.2c-2-0.5-6.3-1.1-7.5-2.3c-2.3-2.3,0.9-7,1.9-9.2c0.3-0.6,0.2-1.2,0.7-1.6c0,0,0.1,0,0.1,0.1c0.2,0.6,0.1,1.4,0.4,1.9c0.1,0,0.1,0,0.2,0c0.3-0.6,0.6-1.1,0.9-1.7c1-0.8,2-1.7,3-2.6c-0.1-0.4-0.5-0.6-0.4-1c0.1-0.2,0.2-0.3,0.4-0.5c1,0,2-0.1,2.7-0.7L165.4,31.9L165.4,31.9z M114.4,31.7c0.9,0,1.3,0.2,1.8,0.5c0.4,2.5-0.8,5.2-2.3,6.6c-0.6,0.6-1.8,0.8-2.1,1.8c-0.2,0.6,0,1.3,0.1,1.7c0.2,0.7,0.2,2.1,0.1,2.6c0.6,2.8,1.3,6.5-1.3,7.6c-1.6-1.5-2-6.5-1.9-8.8c0-1.2-0.2-4.3-0.8-4.8c-0.6,0.7-1.6,1.3-2,2.1c-0.7,0-1,0.2-1.5,0c-0.6-0.2-0.7-0.8-0.8-1.5c0,0,0,0,0.1-0.1c0.5,0,1.1-0.1,1.6-0.1c0.5-0.9,1.9-1.3,2.6-2.1c0-0.6-0.1-1.2-0.1-1.8c-0.2-0.2-0.4-0.3-0.6-0.5c-0.9-2.3,3.2-1.7,4.2-1.5C112.3,32.5,113.3,32.3,114.4,31.7L114.4,31.7L114.4,31.7L114.4,31.7z M113.8,33.3c-0.6,0.5-2.1,0.8-2,1.6c-0.2,0.6-0.2,2.1,0.1,2.6c0,0,0,0,0.1,0c0.1,0,0.2,0,0.3,0c0.6-1,2-2.9,1.9-4.2C114.1,33.3,114,33.3,113.8,33.3L113.8,33.3L113.8,33.3z M151,30.4c0.2,0.1,0.4,0.1,0.6,0.2c0.1,0.7,0,1.4,0.1,2c0.4,0.1,0.9,0.1,1.2,0.4c-0.2,0.3-0.4,0.6-0.7,0.9c0,0.1,0.1,0.1,0.1,0.2c0,0,0,0,0.1,0c1.1-0.2,2.3-0.8,3.4-0.1c0,1.8-2.1,2.8-3.1,3.8c0.1,1,0.9,3.3,0.6,3.8c0,0,0,0.1,0,0.1c-1.3,0-2.8,0.5-3.9,0.9c-0.1,1.8-1.3,7.9-2.5,8.5c-1-0.1-1.3-0.5-1.8-1.3c-1.5-2.7,1.6-4.1,0.9-5.9c-0.1,0-0.1,0-0.2-0.1c-1.3,0.7-4.3,2.4-5.7,1.5c0,0,0,0,0-0.1c0-4.4,4.7-4.7,7.3-6.5c0-0.6-0.1-1.2-0.2-1.8c-1.5,0.2-2.4,1.4-3.4,2.1c-0.6-0.2-0.9-0.3-1.3-0.6c0-1.7,1-2.2,1.9-3.1c0.2,0,0.4,0,0.7,0.1c0.2,0.3,0.1,0.5,0.7,0.5c1.2-0.4,2.3-0.7,3.5-1.1c0-0.1-0.1-0.3-0.1-0.4c-0.4-0.1-0.5-0.2-0.7-0.5c-0.1-0.4,0-0.9,0.2-1.3c0.5-0.1,0.8,0,1.3,0c0,0,0.1-0.1,0.1-0.1c0-0.8,0.2-1.5,0.4-2.1C150.8,30.6,150.9,30.5,151,30.4L151,30.4L151,30.4z M145.8,41.2c-0.4,0.4-1.2,0.5-1.6,0.9c0,0.1,0,0.1,0.1,0.2c0.1,0,0.1,0,0.2,0.1c0.9,0.2,1.7-0.5,2.3-0.8c0-0.1,0-0.2-0.1-0.4C146.4,41.3,146.1,41.3,145.8,41.2L145.8,41.2L145.8,41.2z M151,38.2c-0.3,0.2-0.5,0.3-0.4,0.6c0.1,0.2,0.4,0.3,0.6,0.4c0.3,0,0.7,0,1-0.1c0-0.2,0-0.4,0-0.6c-0.2-0.1-0.3-0.3-0.5-0.4C151.5,38.1,151.3,38.1,151,38.2L151,38.2L151,38.2z M148.3,36.4c-0.2,0.1-0.2,0.1-0.4,0.3c0,0.1,0.1,0.2,0.1,0.4c0.2,0,0.3,0,0.5-0.1c0-0.1,0-0.3,0.1-0.4c0,0-0.1-0.1-0.1-0.1C148.5,36.4,148.4,36.4,148.3,36.4L148.3,36.4z M152.6,35.2c-0.8,0.3-1.2,0.3-1.8,0.8c0,0.1,0,0.1,0,0.2c0.1,0.1,0.2,0.2,0.3,0.3c0.8,0,1.4-0.4,1.7-0.9c0-0.1,0-0.2,0.1-0.3C152.8,35.3,152.7,35.3,152.6,35.2z M114,26.7c0.5,0,0.7,0.1,0.9,0.3c0,0.2,0.1,0.5,0.1,0.7c-0.1,0.3-0.1,0.5-0.2,0.8c-2.7,0.9-5.6,4.9-8.7,3.9c-0.2-0.1-0.3-0.2-0.5-0.3c0-0.4,0-0.7,0.1-1.1c0.7-1.4,3.1-1.4,4.5-2.2C111.5,28.3,112.4,27.5,114,26.7L114,26.7z M152.7,25.8c2.1,0,3,0.6,4.1,1.4c0.1,0.7,0.3,1.6-0.2,2.1c-0.6,0.9-1.9,0.8-2.9,0.5c-0.2-0.9-0.3-1.7-0.7-2.4c-0.7,0-1.3-0.2-1.6-0.6c0-0.2,0.1-0.3,0.1-0.5C151.9,26.2,152.3,26,152.7,25.8L152.7,25.8L152.7,25.8z M147.1,25.1c0.2,0,0.5,0.1,0.7,0.1c0,0.2,0,0.3,0,0.5c-0.4,0.8-1.2,1.2-1.3,2.2c0.1,0,0.1,0.1,0.2,0.1c0.2,0,0.5,0,0.7,0.1c0,0.2,0,0.4,0,0.6c-0.4,0.6-0.8,1.1-1.3,1.7c-1.4,0.1-1.9-0.1-2.7-0.7C143.3,26.9,145.3,26.5,147.1,25.1L147.1,25.1L147.1,25.1z M165.4,24.4c1.4,0.3,3.9,0.4,3,2.4c-0.6,1.3-4.9,1.2-5.8,0.6c0-0.1,0-0.2,0-0.4C163.6,25.5,163.7,25.3,165.4,24.4L165.4,24.4L165.4,24.4L165.4,24.4z"/><path fill="#000000" d="M109.4,64.5c7.9-0.1,13.5,3.8,15.8,9.2c0.3,0.7,1.2,1.6,1.4,2.3c0,0.3,0,0.7,0,1.1c0.2,0.4,0.4,0.8,0.7,1.2c0.4,1.1,1,5.9,0.7,7.1c-0.2,0.9-0.5,2.1-0.7,3c0,0.5,0,1.1-0.1,1.6c-0.2,0.4-0.4,0.9-0.7,1.3c0,0.4,0,0.8,0,1.2c-0.4,1.4-1.7,2.6-1.8,4.3c0.3,0,0.5,0.1,0.7,0.1c5.7-3.3,11.8-6.5,18.9-8.5c0.6,0,1.2,0,1.8,0c0.7-0.3,1.3-0.5,2-0.7c0.6,0,1.1,0,1.7,0c0.9-0.2,1.8-0.4,2.6-0.7c1,0,1.9,0,2.9,0c3.9-0.1,7.3,0.4,10.2,1.3c0.7,0.1,1.5,0.1,2.3,0.2c0.8,0.3,2,1.1,2.8,1.4c0.4,0,0.9,0.1,1.3,0.1c7.7,4.5,12.8,8.9,16.8,17c2.4,5,4.5,11.7,4.5,18.8c0,2.9,0.4,7.4-0.8,9c-1,0.2-2.1,0.4-3.3,0.4c-0.1-0.1-0.3-0.3-0.4-0.4c0.2-20.3-6.4-32.7-19-40.1c-0.4-0.1-0.9-0.1-1.3-0.2c-0.8-0.3-1.8-1.1-2.5-1.4c-0.7-0.1-1.4-0.1-2.2-0.2c-5.5-2-14.1-1.9-19.7,0c-0.9,0.1-1.7,0.1-2.6,0.2c-7.3,2.6-14,5.5-19.9,9.4c-0.2-0.1-0.3-0.2-0.5-0.4c0.6-2.2,2.2-4.4,2.7-6.7c0-0.7,0-1.3,0-1.9c2.4-10.3-3.2-18.7-9.8-22.3c-0.6-0.1-1.1-0.1-1.7-0.2c-0.3-0.2-0.7-0.4-1-0.7c-1.3-0.4-3.2-0.6-4.4-0.7c-1.9-0.3-2,0.7-3.7-0.3c-0.1-0.6-0.2-1.1-0.3-1.7c-0.2-0.2-0.3-0.4-0.6-0.6c-0.7-2.4,6-1.8,7.3-2.6L109.4,64.5L109.4,64.5z M96.9,80.6c1.7,0.3,3.5,0.5,5.3,0.7c0.3,0.2,0.7,0.4,1,0.7c0.4,0,0.8,0,1.2,0c0.7,0.2,1.4,1,1.9,1.3c0.4,0.1,0.8,0.3,1.2,0.4c2,1.4,3.7,3.4,4.9,5.8c0.4,0.7,3,4.8,2.3,6c0.6,1.4,1.2,4.1,0.7,6.5c-0.5,2.9-1.2,5.8-2.1,8.2c-0.3,0.8-1.3,2-0.8,3.1c0.2,0,0.4,0,0.6,0.1c0.9-1.2,3-1.9,4.3-2.6c0.9-0.4,1.7-1.3,2.5-1.7c1.1-0.6,2.2-0.7,3.3-1.2c0.4-0.3,0.8-0.5,1.2-0.7c0.3,0,0.6,0,0.9,0c0.8-0.3,1.9-1.1,2.8-1.4c0.5-0.1,1-0.1,1.6-0.2c2.4-0.9,5.5-1.9,8.3-2.5c4.5-1,12.4-0.8,16.1,0.7c0.8,0.4,1.6,0,2.5,0.4c0.8,0.3,1.9,1.1,2.7,1.4c0.4,0.1,0.8,0.1,1.2,0.2c4.9,2.7,10.1,6.5,12.5,11.9c0.2,0.5,1,1.1,1.3,1.7c0.1,0.4,0.2,0.7,0.3,1.1c0.4,0.7,1.1,1.5,1.3,2.2c0,0.4,0,0.8,0.1,1.2c0.2,0.2,0.3,0.4,0.6,0.6c0,0.4,0.1,0.7,0.1,1.1c0.2,0.3,0.4,0.6,0.7,0.8c0.1,0.7,0.2,1.4,0.3,2.1c0.4,1.3,1,3.2,1.3,4.7c0,1.1,0,2.2,0.1,3.3c0.4,1.9,0.7,4,0.7,6.6c0,2.4,0.2,6.7-0.7,8.1c-3.6,0.2-7.2,0.4-10.8,0.6c-2,0-4,0.1-6,0.1c-2.8,0.1-5.6,0.2-8.4,0.3c0-0.1,0-0.3-0.1-0.4c1.3-2.3,0.9-8.3,0.6-11.2c-0.6-4.9-2.3-9.2-6.1-11.5c-0.7-0.4-1.3-1.2-2-1.5c-0.3,0-0.7,0-1-0.1c-0.3-0.2-0.7-0.4-1-0.7c-0.5,0-1-0.1-1.6-0.1c-2.7-0.9-6.2-1-9-0.1c-0.6,0.1-1.1,0.1-1.7,0.2c-0.4,0.2-0.9,0.4-1.3,0.7c-0.7,0-1.3,0-1.9,0.1c-0.8,0.3-1.9,1.3-2.8,1.6c-0.4,0-0.8,0-1.2,0.1c-0.6,0.3-1.4,1-2,1.3c-0.4,0.1-0.7,0.1-1,0.2c-0.6,0.4-1.1,0.9-1.7,1.3c-0.3,0.1-0.7,0.1-1,0.2c-0.6,0.3-1,0.9-1.5,1.3c-1.5,1.2-3,2.2-4.6,3.3c-0.4,0.4-0.8,0.9-1.2,1.3c-1.2,1-2.9,2.3-3.8,3.6c-1.2,1.8-2.6,3.4-3.9,5.3c-0.3,0.4-0.7,0.8-1.1,1.2c-0.6,1.1-1,2.1-1.8,3c-11,0.3-22.1,0.6-33.1,0.8c-0.7-0.6,1.8-2.9,2-3.3c0.1-0.3,0.1-0.6,0.2-0.8c3.1-3.6,5.3-8,7.8-12.1c4-6.3,6.6-13.8,9.8-20.9c0-0.4,0-0.8,0.1-1.2c0.2-0.4,0.4-0.9,0.7-1.3c0.1-0.5,0.1-1,0.2-1.5c0.2-0.3,0.4-0.6,0.7-0.9c0-0.4,0-0.8,0-1.2c0.2-0.5,0.4-1,0.7-1.5c0-0.4,0-0.8,0.1-1.2c0.2-0.5,0.4-1,0.7-1.5c0-0.7,0-1.3,0-1.9c0.3-1.1,0.5-2.1,0.7-3.2c0-0.8,0-1.6,0-2.3c0.3-1.1,0.4-3.8,0.1-5.2c-0.2-0.7,0-2.1-0.2-2.9c-0.2-0.6-0.4-1.3-0.7-2c0-0.4,0-0.9,0-1.3c-0.3-0.9-1.4-1.8-1.4-3c0.1-0.2,0.3-0.4,0.4-0.6c1.3-0.1,2.1-0.7,3.1-0.9c1-0.2,3.2-0.2,3.9-0.7L96.9,80.6L96.9,80.6z M102.8,73.3c5.7,0,10.7,2.4,13.5,5.8c0.3,0.4,0.5,0.9,0.7,1.3c0.7,0.8,1.7,1.8,2.1,2.9c0.1,0.3,0.1,0.7,0.2,1.1c0.2,0.2,0.3,0.4,0.6,0.6c0,0.5,0.1,1,0.1,1.4c0.2,0.2,0.4,0.4,0.6,0.7c0.2,0.4,0.9,6.3,0.7,6.9c-0.4,1.3-0.1,3.1-0.6,4.5c-0.3,1.1-1,2.5-1.4,3.6c0,0.5-0.1,1-0.1,1.4c-0.3,0.7-1.3,1.3-1,2.4c0,0,0,0,0.1,0c1.7-0.2,2.2-1.3,3.3-1.8c3-1.5,5.9-3.3,8.9-4.5c1.1-0.4,1.9-0.5,3.1-0.9c0.3-0.2,0.7-0.4,1-0.7c0.8-0.4,1.5-0.3,2.4-0.6c1-0.3,2.1-0.9,3-1.1c3.1-0.8,6.4-0.8,9.6-1.4c3.7-0.7,8.9,0.9,11.6,1.4c0.7,0.1,1.1,0,1.6,0.2c0.7,0.3,1.7,1,2.3,1.2c0.4,0,0.8,0.1,1.2,0.1c0.6,0.2,1.3,0.9,1.8,1.2c0.4,0.1,0.9,0.3,1.3,0.4c0.5,0.4,1,0.9,1.6,1.3c0.3,0.1,0.5,0.1,0.7,0.2c3,1.9,6.8,6.5,8.7,9.5c0.1,0.3,0.1,0.7,0.2,1c0.3,0.6,1.1,1.2,1.3,1.8c0.7,1.8,1.3,3.4,2.2,5.1c0.1,0.4,0.1,0.9,0.2,1.3c0.2,0.2,0.3,0.3,0.5,0.5c0.3,0.7,0,1.5,0.2,2.3c0.2,0.3,0.4,0.7,0.7,1c0.1,0.8,0.1,1.6,0.2,2.4c0.3,0.9,1.1,3.6,0.7,4.8c0.9,2.5,0.7,6,0.7,9.3c0,1.3,0.1,2.9-0.1,4c-0.7,0.2-4.6,0.4-5-0.1c-0.1-2.2-0.1-4.4-0.2-6.6c-0.2-0.8-0.3-1.7-0.6-2.5c0-0.8,0-1.6,0-2.3c-0.1-0.7-0.5-1.4-0.7-2c0-0.8,0-1.6-0.1-2.4c-0.2-0.4-0.4-0.8-0.7-1.2c-0.1-0.6-0.1-1.1-0.2-1.7c-0.2-0.3-0.3-0.6-0.6-0.8c-0.1-0.5-0.1-1-0.2-1.5c-0.8-1.5-1.4-3.2-2.1-4.8c-0.5-1-1.5-2-2.1-3.1c-0.1-0.3-0.1-0.6-0.2-1c-1-1.1-2-2.2-3.1-3.3c-1.9-1.9-3.4-3.7-5.9-4.9c-0.6-0.5-1.2-1-1.8-1.4c-0.3,0-0.7-0.1-1.1-0.1c-0.7-0.4-1.5-1.1-2.3-1.4c-0.5,0-1,0-1.5-0.1c-0.1-0.1-0.1-0.3-0.2-0.4c-0.6-0.4-2.8-0.9-3.6-1.2c-1.6-0.1-3.3-0.2-4.9-0.4c-2.6-0.4-6.4-0.2-8.9,0.4c-0.7,0-1.3,0-2,0c-2,0.6-4,1-6.2,1.7c-3.2,0.9-6.2,2.5-9,3.8c-1.7,0.7-3.4,1.2-5,2.2c-1.5,0.9-3,1.8-4.4,2.6c0-0.2,0-0.3,0-0.5c2-5.7,4.1-12.4,1.7-19c-0.1-0.6-0.1-1.1-0.2-1.7c-0.2-0.2-0.3-0.3-0.6-0.5c-0.3-0.8-0.4-1.5-0.7-2.2c-0.6-0.6-1.2-1.3-1.8-1.9c-0.3-0.5-0.6-1-0.9-1.5c-0.3-0.1-0.6-0.3-0.9-0.4c-0.7-0.6-1.3-1.3-2-1.9c-1.1-1-2.8-1.2-4.3-1.8c-0.3-0.2-0.6-0.4-1-0.7c-0.6,0-1.3,0-2,0c-1.4,0-5.2,0.2-5.7-0.6c-0.1-0.4-0.2-0.9-0.3-1.3c-0.2-0.6-0.6-0.6-0.7-1.6c1-1.4,1.7-0.6,3.3-1.2c0.4-0.2,1-0.6,1.6-0.7c0.9-0.2,2.1,0.2,2.6-0.1L102.8,73.3L102.8,73.3z"/><path fill="#000000" d="M106.3,163.9v17h-4.6v-11.2c-0.7,0.6-1.5,1.1-2.2,1.4c-0.7,0.4-1.5,0.7-2.6,1v-3.8c1.5-0.5,2.7-1.1,3.6-1.9c0.8-0.7,1.5-1.6,2-2.6L106.3,163.9L106.3,163.9L106.3,163.9L106.3,163.9z M112.9,177.1l4.5-0.6c0.1,0.6,0.3,1.1,0.6,1.4c0.3,0.3,0.6,0.4,1.1,0.4c0.7,0,1.3-0.4,1.7-1.1c0.3-0.6,0.5-1.7,0.7-3.5c-0.5,0.6-1.1,1-1.6,1.3c-0.6,0.3-1.2,0.4-2,0.4c-1.5,0-2.7-0.5-3.7-1.6c-1-1.1-1.5-2.4-1.5-4c0-1.1,0.3-2.1,0.7-3c0.5-0.9,1.2-1.6,2.1-2.1s2-0.7,3.4-0.7c1.6,0,2.9,0.3,3.9,0.8c1,0.6,1.8,1.5,2.4,2.7c0.6,1.3,0.9,2.9,0.9,5c0,3-0.6,5.2-1.8,6.6c-1.2,1.4-2.9,2.1-5.1,2.1c-1.3,0-2.3-0.2-3.1-0.5c-0.7-0.3-1.4-0.7-1.9-1.4C113.7,178.9,113.3,178.1,112.9,177.1L112.9,177.1L112.9,177.1z M121.2,169.7c0-0.9-0.2-1.6-0.7-2.1c-0.4-0.5-1-0.8-1.6-0.8c-0.6,0-1.1,0.2-1.5,0.7c-0.4,0.5-0.6,1.2-0.6,2.1c0,0.9,0.2,1.6,0.6,2.2c0.4,0.5,0.9,0.7,1.5,0.7c0.6,0,1.2-0.2,1.6-0.7C121,171.2,121.2,170.5,121.2,169.7L121.2,169.7L121.2,169.7L121.2,169.7z M133.7,169l-4.3-0.8c0.4-1.4,1.1-2.5,2-3.2c1-0.7,2.4-1.1,4.3-1.1c2.1,0,3.6,0.4,4.6,1.2c0.9,0.8,1.4,1.9,1.4,3.1c0,0.7-0.2,1.4-0.6,2c-0.4,0.6-0.9,1.1-1.7,1.5c0.6,0.1,1.1,0.4,1.4,0.6c0.5,0.3,0.9,0.8,1.3,1.4c0.3,0.6,0.5,1.2,0.5,2c0,1-0.3,1.9-0.7,2.8c-0.5,0.9-1.2,1.6-2.2,2.1c-0.9,0.5-2.2,0.7-3.7,0.7c-1.5,0-2.6-0.2-3.5-0.5c-0.8-0.4-1.5-0.9-2.1-1.6c-0.5-0.7-0.9-1.5-1.3-2.6l4.5-0.6c0.1,0.9,0.5,1.6,0.8,2c0.4,0.4,0.8,0.5,1.4,0.5s1.1-0.2,1.5-0.7c0.4-0.5,0.6-1.1,0.6-1.8c0-0.8-0.2-1.4-0.6-1.8s-0.9-0.6-1.6-0.6c-0.4,0-0.8,0.1-1.5,0.3l0.2-3.3c0.3,0,0.4,0,0.6,0c0.6,0,1.1-0.2,1.5-0.6s0.6-0.8,0.6-1.4c0-0.5-0.2-0.9-0.4-1.2c-0.3-0.3-0.7-0.5-1.2-0.5s-0.9,0.1-1.3,0.5C134,167.6,133.7,168.1,133.7,169L133.7,169L133.7,169z M148.6,171.9c-0.7-0.4-1.2-0.8-1.5-1.3c-0.4-0.6-0.7-1.4-0.7-2.3c0-1.4,0.6-2.5,1.9-3.4c1-0.7,2.3-1,3.9-1c2.2,0,3.8,0.4,4.8,1.3c1.1,0.8,1.5,1.9,1.5,3.2c0,0.7-0.2,1.5-0.6,2.1c-0.3,0.5-0.8,0.9-1.5,1.4c0.9,0.4,1.5,1,2,1.7c0.4,0.7,0.6,1.5,0.6,2.4c0,0.8-0.2,1.6-0.6,2.3c-0.4,0.7-0.8,1.3-1.4,1.7c-0.5,0.4-1.2,0.7-2,0.8c-0.8,0.2-1.7,0.3-2.6,0.3c-1.7,0-3.1-0.2-3.9-0.6c-0.9-0.4-1.6-1.1-2-1.9c-0.5-0.8-0.7-1.7-0.7-2.7c0-1,0.2-1.8,0.7-2.5C147,172.8,147.7,172.3,148.6,171.9L148.6,171.9L148.6,171.9z M150.6,168.6c0,0.6,0.2,1.1,0.5,1.4c0.4,0.4,0.8,0.5,1.4,0.5c0.5,0,0.9-0.1,1.3-0.5c0.3-0.4,0.5-0.8,0.5-1.4c0-0.6-0.2-1.1-0.5-1.4s-0.8-0.5-1.3-0.5s-1,0.1-1.3,0.5C150.8,167.6,150.6,168,150.6,168.6L150.6,168.6L150.6,168.6z M150.4,175.8c0,0.7,0.2,1.3,0.6,1.8c0.4,0.5,0.9,0.7,1.5,0.7s1-0.2,1.5-0.7c0.4-0.5,0.6-1.1,0.6-1.8s-0.2-1.3-0.6-1.8c-0.4-0.5-0.9-0.7-1.5-0.7c-0.6,0-1.1,0.2-1.5,0.7C150.6,174.5,150.4,175.1,150.4,175.8L150.4,175.8L150.4,175.8z"/></g></g>
</svg>